Simulation
nRows=36
nColumns=15
endheader
time  TH_x TH_y TH_z SC_y  SC_z  SC_x  AC_y  AC_z  AC_x  GH_y  GH_z  GH_yy  EL_x  PS_y
0.75  0.000000  0.000000  0.000000  -33.50127638262061  4.289579160485008  20.477966750833453  59.94697706147235  -1.216977683794322  -11.641699786263592  22.151380867275474  28.971593879746337  -18.768182154828583  19.95651683277893  0.000000
0.765  0.000000  0.000000  0.000000  -33.639021945523844  4.498361801904365  20.69471800992282  60.01616693597723  -0.8608992607800717  -11.5126084271403  22.192986750767965  29.477373909640008  -19.08617916535615  19.751677508965752  0.000000
0.78  0.000000  0.000000  0.000000  -33.774854150796436  4.708376030681315  20.919174456230763  60.07570414029008  -0.5080275773302069  -11.387367234785675  22.24048032886086  29.9681619586627  -19.40238185776898  19.545599073524162  0.000000
0.7949999999999999  0.000000  0.000000  0.000000  -33.90971614607017  4.919602693870129  21.151820022908105  60.12637147764353  -0.1602856905642239  -11.265115088224581  22.293606699917923  30.443964661805  -19.716661435072226  19.338939817072845  0.000000
0.8099999999999999  0.000000  0.000000  0.000000  -34.04350306895074  5.131999445668471  21.392270623935232  60.16904862704494  0.18031270185110534  -11.144658414541384  22.35205980608751  30.904740630992332  -20.02887296133141  19.132102698020827  0.000000
0.825  0.000000  0.000000  0.000000  -34.17728355369844  5.345795422787132  21.640798664328837  60.20476497851554  0.5117019077651603  -11.024617655522396  22.415419504252238  31.350504457746993  -20.338787059053033  18.925516016127595  0.000000
0.84  0.000000  0.000000  0.000000  -34.31100131334644  5.561047369429158  21.896755470795586  60.23466104189578  0.8318320121900171  -10.90359067485371  22.48309716464934  31.781350941098598  -20.646048598563205  18.71975264351885  0.000000
0.855  0.000000  0.000000  0.000000  -34.44582875108443  5.777983646001984  22.16027765786468  60.26016533047936  1.138710749500306  -10.780029418535289  22.554216571115695  32.19736774233221  -20.949978031024013  18.515425497751917  0.000000
0.87  0.000000  0.000000  0.000000  -34.58181742162976  5.99659856864507  22.43057909486057  60.28281388549934  1.4304170548017636  -10.652387296368122  22.62777188908858  32.59874871948589  -21.249877047514243  18.313108301247116  0.000000
0.885  0.000000  0.000000  0.000000  -34.720226901503906  6.217032844736999  22.70762422947065  60.30434846974929  1.7052304026965535  -10.51908189041218  22.702557163575122  32.9856997671826  -21.5447801914773  18.11341094195419  0.000000
0.8999999999999999  0.000000  0.000000  0.000000  -34.86113840914081  6.439139502354647  22.990387882148763  60.326466131646974  1.961657691940478  -10.378672956913375  22.777393171827025  33.35854093099716  -21.83381670209786  17.91691359634547  0.000000
0.9149999999999999  0.000000  0.000000  0.000000  -35.005773527199956  6.662895218803462  23.27855618324027  60.35086492944017  2.198617098102411  -10.22983448099848  22.85112897658442  33.71757462706662  -22.11602135996749  17.72424340084258  0.000000
0.9299999999999999  0.000000  0.000000  0.000000  -35.15403040466857  6.887956617115752  23.57075541751604  60.378948217682215  2.41547907038367  -10.071606771492716  22.92292183411645  34.06316555096887  -22.39071543424647  17.536019712391493  0.000000
0.945  0.000000  0.000000  0.000000  -35.306903061285865  7.1139873349440945  23.86633036017726  60.41191098410825  2.6122467408086756  -9.9033819319232  22.992258213458523  34.395653463968266  -22.65738519597639  17.35293115262168  0.000000
0.96  0.000000  0.000000  0.000000  -35.463932752218184  7.340222075468348  24.163655574756262  60.45036304073096  2.7894766540344267  -9.725153650820582  23.05910857189493  34.71538727162234  -22.915884700292423  17.175693253172255  0.000000
0.975  0.000000  0.000000  0.000000  -35.62540034940276  7.5661833776326315  24.461960675175913  60.49450824794121  2.948305161558469  -9.537476567008232  23.123700095576357  35.02250371658389  -23.166204352600765  17.00505575083106  0.000000
0.99  0.000000  0.000000  0.000000  -35.790073734656595  7.791022053106735  24.759467628089382  60.54392049731484  3.090370380487165  -9.341413140851163  23.18650024843574  35.31712851043802  -23.408470050272634  16.841765131393245  0.000000
1.005  0.000000  0.000000  0.000000  -35.957791159276276  8.014056181381608  25.055360407616973  60.597953494773314  3.217618611659937  -9.138347063397608  23.2479380512119  35.599370043501054  -23.64273813986444  16.686580098529056  0.000000
1.02  0.000000  0.000000  0.000000  -36.12696311080576  8.234480830847932  25.347806157385723  60.65540262742367  3.3320117507321307  -8.929835115876044  23.3082866065036  35.869496096625554  -23.868981056265884  16.540249270927884  0.000000
1.035  0.000000  0.000000  0.000000  -36.29703256981651  8.452192974063774  25.63599230860279  60.714926366291564  3.43529101869973  -8.717344170459434  23.367239866228502  36.127762047437756  -24.086648935867217  16.403448522943084  0.000000
1.05  0.000000  0.000000  0.000000  -36.46602977330005  8.666280341274826  25.91803492737209  60.775160851349526  3.5291804416946624  -8.502717921094794  23.423646066510827  36.37498727394712  -24.294816780634616  16.27666126188637  0.000000
1.065  0.000000  0.000000  0.000000  -36.63363872441939  8.875653053492067  26.19364310570889  60.83495446716965  3.615016509693599  -8.287761728899078  23.475520852393686  36.612198990042174  -24.491877077129836  16.159856155584066  0.000000
1.08  0.000000  0.000000  0.000000  -36.79796932689163  9.079678154829768  26.46178365242748  60.8928890833124  3.6938980064013243  -8.07490565013708  23.51949244819347  36.84004910224186  -24.67520796749746  16.05380771377276  0.000000
1.095  0.000000  0.000000  0.000000  -36.95900482298487  9.27774981623436  26.72279837927575  60.94866844592  3.7673152499016243  -7.866051486596515  23.55098354832623  37.0584960853536  -24.840828691203882  15.959509730586245  0.000000
1.1099999999999999  0.000000  0.000000  0.000000  -37.11722251344169  9.468717467182698  26.975950143018974  61.00298813350003  3.8363421895878895  -7.661397014975406  23.56770936919706  37.26842564541638  -24.987251995555777  15.876184474415501  0.000000
1.125  0.000000  0.000000  0.000000  -37.27427504200907  9.652002450921639  27.221355138783323  61.05680955260988  3.9022061664989858  -7.461069797534814  23.56835392966509  37.47060528246286  -25.113855739230186  15.803477931978362  0.000000
1.14  0.000000  0.000000  0.000000  -37.429526946700406  9.826438087095584  27.45774312371201  61.110257573647154  3.9665474388295854  -7.265913011357672  23.55102652453683  37.66560287552011  -25.218814847122285  15.742123849522532  0.000000
1.155  0.000000  0.000000  0.000000  -37.583954874514184  9.991502610324257  27.684907413805316  61.163678161993886  4.030985760810573  -7.076191360911065  23.51485895925358  37.85352460171907  -25.30124779391129  15.692505045571078  0.000000
1.17  0.000000  0.000000  0.000000  -37.73775097778037  10.146142539038404  27.901180684810015  61.217756750970345  4.096999136615441  -6.892015790672056  23.460785451862023  38.03507997855784  -25.361722723527112  15.654290833189481  0.000000
1.185  0.000000  0.000000  0.000000  -37.892246937452356  10.289691716930882  28.10610309225337  61.27304192637994  4.16589430316301  -6.713669770263876  23.390729444190054  38.210460610461396  -25.40172918787563  15.627529484994696  0.000000
1.2  0.000000  0.000000  0.000000  -38.04641351529679  10.42113686817056  28.29784894748319  61.32929939527571  4.2385577836163035  -6.542243134596731  23.306608735110323  38.37986517237616  -25.422568300507656  15.612460355055923  0.000000
1.2149999999999999  0.000000  0.000000  0.000000  -38.199521817039184  10.538700632788085  28.47582614059551  61.38664734380208  4.316121499474186  -6.379800026198015  23.210120235674182  38.54284636749322  -25.425478517205082  15.60907966489159  0.000000
1.23  0.000000  0.000000  0.000000  -38.34967109778833  10.640645964485072  28.63791901152023  61.44500887997663  4.399064805348754  -6.228208971732937  23.104422274214663  38.69897957595971  -25.412944289747653  15.616914016055782  0.000000
1.2449999999999999  0.000000  0.000000  0.000000  -38.49681100810457  10.726074055367235  28.78341547346878  61.50454858938599  4.487462984480371  -6.088994161663619  22.99414287054074  38.84649573904043  -25.388615907912826  15.635561804908393  0.000000
1.26  0.000000  0.000000  0.000000  -38.63853532240397  10.792862187156855  28.910083629420086  61.564881802311504  4.5812275933257185  -5.964755924833925  22.884127002685275  38.983328560211206  -25.35621393892772  15.664763693937543  0.000000
1.275  0.000000  0.000000  0.000000  -38.77343485303806  10.838646528487576  29.017003225338275  61.62640661598844  4.680439951129575  -5.858884520582822  22.77985709478973  39.10586523709463  -25.32015806370017  15.703878799562794  0.000000
